<svg width="1200" height="720" viewBox="0 0 1200 720" fill="none" xmlns="http://www.w3.org/2000/svg">
  <rect width="1200" height="720" rx="32" fill="#F8FAFC"/>
  <text x="72" y="88" fill="#0F172A" font-family="Arial, sans-serif" font-size="34" font-weight="700">Mapping inline et profils</text>
  <text x="72" y="122" fill="#475569" font-family="Arial, sans-serif" font-size="18">Le but est de faire correspondre les colonnes source au modele cible sans multiplier les scripts jetables.</text>

  <rect x="72" y="180" width="312" height="420" rx="28" fill="#EFF6FF" stroke="#2563EB" stroke-width="2"/>
  <text x="104" y="226" fill="#1D4ED8" font-family="Arial, sans-serif" font-size="22" font-weight="700">Colonnes source</text>
  <rect x="104" y="264" width="248" height="56" rx="16" fill="#FFFFFF" stroke="#93C5FD"/>
  <text x="128" y="298" fill="#1E293B" font-family="Arial, sans-serif" font-size="18">BATIMENT</text>
  <rect x="104" y="340" width="248" height="56" rx="16" fill="#FFFFFF" stroke="#93C5FD"/>
  <text x="128" y="374" fill="#1E293B" font-family="Arial, sans-serif" font-size="18">ETAGE</text>
  <rect x="104" y="416" width="248" height="56" rx="16" fill="#FFFFFF" stroke="#93C5FD"/>
  <text x="128" y="450" fill="#1E293B" font-family="Arial, sans-serif" font-size="18">BUREAU</text>
  <rect x="104" y="492" width="248" height="56" rx="16" fill="#FFFFFF" stroke="#93C5FD"/>
  <text x="128" y="526" fill="#1E293B" font-family="Arial, sans-serif" font-size="18">LIBELLE</text>

  <rect x="444" y="180" width="312" height="420" rx="28" fill="#F8FAFC" stroke="#64748B" stroke-width="2"/>
  <text x="476" y="226" fill="#334155" font-family="Arial, sans-serif" font-size="22" font-weight="700">Regles de mapping</text>
  <rect x="476" y="264" width="248" height="64" rx="16" fill="#FFFFFF" stroke="#CBD5E1"/>
  <text x="500" y="292" fill="#0F172A" font-family="Arial, sans-serif" font-size="18">targetField: code</text>
  <text x="500" y="314" fill="#475569" font-family="Arial, sans-serif" font-size="14">transform: TRIM</text>
  <rect x="476" y="350" width="248" height="64" rx="16" fill="#FFFFFF" stroke="#CBD5E1"/>
  <text x="500" y="378" fill="#0F172A" font-family="Arial, sans-serif" font-size="18">targetField: label</text>
  <text x="500" y="400" fill="#475569" font-family="Arial, sans-serif" font-size="14">transform: TRIM</text>
  <rect x="476" y="436" width="248" height="64" rx="16" fill="#FFFFFF" stroke="#CBD5E1"/>
  <text x="500" y="464" fill="#0F172A" font-family="Arial, sans-serif" font-size="18">targetField: parentPath</text>
  <text x="500" y="486" fill="#475569" font-family="Arial, sans-serif" font-size="14">transform: CONSTANT ou JSON</text>

  <rect x="816" y="180" width="312" height="420" rx="28" fill="#ECFDF5" stroke="#16A34A" stroke-width="2"/>
  <text x="848" y="226" fill="#15803D" font-family="Arial, sans-serif" font-size="22" font-weight="700">Champs cibles</text>
  <rect x="848" y="264" width="248" height="56" rx="16" fill="#FFFFFF" stroke="#86EFAC"/>
  <text x="872" y="298" fill="#1E293B" font-family="Arial, sans-serif" font-size="18">code</text>
  <rect x="848" y="340" width="248" height="56" rx="16" fill="#FFFFFF" stroke="#86EFAC"/>
  <text x="872" y="374" fill="#1E293B" font-family="Arial, sans-serif" font-size="18">label</text>
  <rect x="848" y="416" width="248" height="56" rx="16" fill="#FFFFFF" stroke="#86EFAC"/>
  <text x="872" y="450" fill="#1E293B" font-family="Arial, sans-serif" font-size="18">parentPath</text>
  <rect x="848" y="492" width="248" height="56" rx="16" fill="#FFFFFF" stroke="#86EFAC"/>
  <text x="872" y="526" fill="#1E293B" font-family="Arial, sans-serif" font-size="18">path ou type</text>

  <path d="M352 292H476" stroke="#2563EB" stroke-width="4" stroke-linecap="round"/>
  <path d="M352 368H476" stroke="#2563EB" stroke-width="4" stroke-linecap="round"/>
  <path d="M352 444H476" stroke="#2563EB" stroke-width="4" stroke-linecap="round"/>
  <path d="M724 292H848" stroke="#16A34A" stroke-width="4" stroke-linecap="round"/>
  <path d="M724 378H848" stroke="#16A34A" stroke-width="4" stroke-linecap="round"/>
  <path d="M724 464H848" stroke="#16A34A" stroke-width="4" stroke-linecap="round"/>

  <text x="72" y="654" fill="#475569" font-family="Arial, sans-serif" font-size="18">Le profil sauvegarde les regles pour les prochains fichiers du meme format.</text>
</svg>
